<svg width="82" height="88" viewBox="0 0 82 88" fill="none" xmlns="http://www.w3.org/2000/svg">
<g clip-path="url(#clip0_103_90)">
<path d="M46.406 6.44448C47.8566 8.95986 48.8499 15.1983 49.3715 23.459H58.6399V14.6909C58.4398 14.598 58.2468 14.4908 58.061 14.3694C57.7109 14.1478 57.3893 13.8906 57.1106 13.6119L57.0749 13.5762C56.5818 13.0831 56.1888 12.49 55.9172 11.8325C55.6457 11.1823 55.4956 10.4677 55.4956 9.71734C55.4956 8.97416 55.6457 8.2667 55.9172 7.60928C56.1959 6.93041 56.6104 6.323 57.1106 5.81564C57.618 5.30827 58.2254 4.90095 58.9043 4.62226C59.5545 4.35071 60.2691 4.20065 61.0123 4.20065C61.7555 4.20065 62.463 4.35071 63.1204 4.62226C63.7993 4.90095 64.4067 5.31542 64.914 5.81564C65.4214 6.323 65.8287 6.93041 66.1074 7.60213L66.1217 7.64501C66.3789 8.28814 66.5219 8.98845 66.5219 9.71019C66.5219 10.4534 66.3718 11.1608 66.1003 11.8183C65.8216 12.4971 65.4071 13.1045 64.9069 13.6119L64.864 13.6548C64.6139 13.8977 64.3352 14.1264 64.0422 14.3193C63.885 14.4265 63.7206 14.5194 63.5491 14.6123V25.9315C63.5491 26.6104 63.2704 27.225 62.8274 27.668C62.3843 28.1111 61.7698 28.3898 61.0909 28.3898H49.6145C49.7003 30.7408 49.7574 33.2133 49.7789 35.7644H71.5312C71.6241 35.5786 71.7241 35.4 71.8313 35.2285L71.8599 35.1927C72.0671 34.8712 72.3101 34.5782 72.5674 34.3209C73.0747 33.8135 73.6821 33.4062 74.361 33.1275L74.4039 33.1132C75.047 32.856 75.7473 32.7059 76.4691 32.7059C77.2122 32.7059 77.9197 32.856 78.5771 33.1275C79.256 33.4062 79.8634 33.8207 80.3708 34.3209C80.8781 34.8283 81.2854 35.4357 81.5641 36.1145C81.8357 36.772 81.9857 37.4794 81.9857 38.2226C81.9857 38.9658 81.8357 39.6732 81.5641 40.3307C81.2854 41.0095 80.871 41.6169 80.3708 42.1243C79.8634 42.6317 79.256 43.039 78.5771 43.3177L78.5342 43.332C77.8911 43.5892 77.1908 43.7322 76.4691 43.7322C75.7259 43.7322 75.0113 43.5821 74.361 43.3105C73.6893 43.0318 73.0819 42.6245 72.5674 42.1172C72.2958 41.8456 72.0528 41.5455 71.8385 41.2096C71.7241 41.0381 71.6241 40.8595 71.5312 40.6737H49.786C49.7646 43.4606 49.7074 46.3118 49.6145 49.2131H76.2047C76.8835 49.2131 77.4981 49.4918 77.9411 49.9349C78.3842 50.3779 78.6629 50.9925 78.6629 51.6713V69.915C78.8987 70.015 79.1202 70.1294 79.3346 70.258C79.7205 70.4867 80.0706 70.7654 80.385 71.0798C80.8924 71.5871 81.2997 72.1945 81.5784 72.8734L81.5927 72.9163C81.85 73.5594 82 74.2597 82 74.9815C82 75.7247 81.85 76.4321 81.5784 77.0895C81.2997 77.7684 80.8853 78.3758 80.385 78.8832C79.8777 79.3905 79.2703 79.7979 78.5914 80.0766C77.9411 80.3481 77.2265 80.4982 76.4833 80.4982C75.7402 80.4982 75.0327 80.3481 74.3753 80.0766C73.6964 79.7979 73.089 79.3834 72.5816 78.8832C72.0743 78.3758 71.667 77.7684 71.3883 77.0895C71.1167 76.4393 70.9667 75.7247 70.9667 74.9815C70.9667 74.2383 71.1167 73.5237 71.3883 72.8734C71.667 72.1945 72.0814 71.5871 72.5816 71.0798C72.8103 70.8511 73.0676 70.6367 73.3391 70.4438C73.4677 70.3509 73.6035 70.2651 73.7464 70.1865V54.1367H49.4216C49.3144 56.452 49.1857 58.7744 49.0285 61.0897H56.9177C57.5965 61.0897 58.2111 61.3684 58.6542 61.8115C59.0972 62.2545 59.3759 62.8691 59.3759 63.5479V73.3093C59.5545 73.4022 59.7189 73.5023 59.8904 73.6095C60.2191 73.8238 60.5121 74.0668 60.7765 74.3312L60.8194 74.3741C61.3053 74.8743 61.7055 75.4674 61.977 76.1248C62.2486 76.7751 62.3986 77.4897 62.3986 78.2329C62.3986 78.9761 62.2486 79.6907 61.977 80.341L61.9556 80.3838C61.6769 81.0484 61.2696 81.6415 60.7765 82.1346L60.7408 82.1703C60.2406 82.6634 59.6474 83.0636 58.9972 83.3351C58.3469 83.6067 57.6251 83.7567 56.882 83.7567C56.1388 83.7567 55.4313 83.6067 54.7739 83.3351C54.095 83.0564 53.4876 82.642 52.9803 82.1417L52.9374 82.0989C52.4515 81.5986 52.0513 81.0055 51.7797 80.3481C51.5082 79.6907 51.3581 78.9832 51.3581 78.24C51.3581 77.4969 51.5082 76.7894 51.7797 76.132C52.0584 75.4531 52.4657 74.8457 52.9731 74.3383C53.2518 74.0597 53.5662 73.8095 53.8949 73.5952C54.0736 73.4808 54.2594 73.3736 54.4523 73.2807V66.0133H48.6641C48.5855 66.9923 48.4997 67.9713 48.414 68.9431C48.2996 70.2008 47.9352 72.5233 48.171 73.6738C48.7999 76.7251 46.0487 85.9291 37.9594 87.6227C33.972 88.4516 29.8488 87.2297 26.7403 84.8C24.2535 82.8635 22.3884 80.1409 21.7166 77.061C20.4161 77.0109 19.0941 76.7465 17.8078 76.3178C14.9637 75.3602 12.2268 73.4951 10.0901 71.0226C7.93921 68.543 6.38139 65.4273 5.88832 61.9615C5.63821 60.1536 5.67394 58.2671 6.07411 56.3234C4.68065 55.0585 3.48013 53.6365 2.52971 52.0858C0.871848 49.4346 -0.03569 46.4476 3.98046e-05 43.3749C0.0357697 40.2807 1.02191 37.1436 3.15856 34.228C4.40196 32.5344 6.03838 30.9194 8.11071 29.4402C8.08928 28.8757 8.08928 28.3112 8.10357 27.7538C8.26793 23.2375 9.93294 19.2644 12.3626 16.2988C14.8779 13.226 18.2437 11.218 21.7023 10.7249H21.7166C21.8381 10.2176 21.981 9.71734 22.1668 9.23141C23.2816 6.20866 25.5755 3.63612 28.3838 1.99969C31.2136 0.356116 34.608 -0.372773 37.9166 0.31324C41.0965 0.984961 44.1264 2.88579 46.406 6.44448ZM21.9882 70.9654C23.1601 67.2781 26.2543 63.598 32.0926 60.6181C33.5504 59.882 35.3226 60.4537 36.0729 61.9044C36.8089 63.3621 36.2373 65.1343 34.7866 65.8847C29.3771 68.6501 27.3405 71.823 27.3405 74.5884C27.3405 76.7465 28.5696 78.7617 30.3561 80.1623C32.1712 81.5701 34.5151 82.3061 36.7303 81.8488C39.4887 81.2771 42.147 78.726 43.5261 73.1664V14.7124C42.147 9.19568 39.4887 6.65886 36.7375 6.08718C34.9224 5.70845 32.993 6.13721 31.3494 7.10191C29.6844 8.06662 28.3481 9.55298 27.7121 11.268C26.8689 13.5547 27.3691 16.3631 30.2275 19.0071C31.4137 20.1147 31.4923 21.9655 30.3847 23.1518C29.2771 24.338 27.4263 24.4166 26.24 23.309C24.0176 21.2509 22.6456 19.0643 21.9596 16.8847C20.2088 17.3064 18.4795 18.464 17.0789 20.1647C15.4425 22.1585 14.3206 24.8596 14.2062 27.961C14.1776 28.7828 14.2205 29.6546 14.342 30.5478H14.3349C14.4921 31.7055 13.9776 32.906 12.92 33.5563C10.7762 34.8712 9.1969 36.3218 8.08928 37.8296C6.74583 39.659 6.13128 41.5812 6.10984 43.432C6.08841 45.3114 6.66723 47.1837 7.70339 48.863C8.58235 50.285 9.78287 51.5856 11.2478 52.6718C12.3483 53.4292 12.8628 54.8441 12.4126 56.1661C11.8338 57.8812 11.7051 59.5462 11.9267 61.0969C12.2411 63.3264 13.2773 65.363 14.6922 66.9994C16.1142 68.643 17.915 69.8721 19.7586 70.501C20.5018 70.7868 21.2522 70.9297 21.9882 70.9654ZM22.6599 29.4402C23.8176 28.304 25.6755 28.3183 26.8189 29.4759C27.9551 30.6336 27.9408 32.4915 26.7831 33.6349C24.2606 36.1217 22.9457 39.3231 22.8028 42.5959C22.6671 45.9688 23.7604 49.4418 26.0614 52.293C27.0833 53.5579 26.876 55.4087 25.6112 56.4305C24.3464 57.4524 22.4956 57.2452 21.4737 55.9803C18.2508 51.9857 16.7216 47.1265 16.9145 42.3601C17.1218 37.6295 19.0226 33.0132 22.6599 29.4402Z" fill="#7385CB"/>
</g>
<defs>
<clipPath id="clip0_103_90">
<rect width="82" height="87.8097" fill="white" transform="translate(0 0.0703125)"/>
</clipPath>
</defs>
</svg>
