<svg width="89" height="28" viewBox="0 0 89 28" fill="none" xmlns="http://www.w3.org/2000/svg">
<path d="M0 14C0 6.26801 6.26801 0 14 0H75C82.732 0 89 6.26801 89 14C89 21.732 82.732 28 75 28H14C6.26802 28 0 21.732 0 14Z" fill="#35842E"/>
<path d="M15.9954 13.8C15.4431 13.8 14.9954 14.2477 14.9954 14.8C14.9954 15.3523 15.4431 15.8 15.9954 15.8V13.8ZM74.2071 15.5071C74.5976 15.1166 74.5976 14.4834 74.2071 14.0929L67.8431 7.72894C67.4526 7.33841 66.8195 7.33841 66.4289 7.72894C66.0384 8.11946 66.0384 8.75262 66.4289 9.14315L72.0858 14.8L66.4289 20.4569C66.0384 20.8474 66.0384 21.4805 66.4289 21.8711C66.8195 22.2616 67.4526 22.2616 67.8431 21.8711L74.2071 15.5071ZM15.9954 15.8H73.5V13.8H15.9954V15.8Z" fill="#EEF9FF"/>
</svg>
