<svg width="36" height="32" viewBox="0 0 36 32" fill="none" xmlns="http://www.w3.org/2000/svg">
<g clip-path="url(#clip0_242_303)">
<path d="M34 28.161C34 29.583 34.813 30.814 36 31.417V31.915C35.668 31.96 35.329 31.985 34.984 31.985C32.859 31.985 30.942 31.093 29.586 29.664C28.767 29.882 27.898 30 26.999 30C22.028 30 17.999 26.418 17.999 22C17.999 17.582 22.028 14 26.999 14C31.97 14 35.999 17.582 35.999 22C35.999 23.73 35.381 25.331 34.332 26.64C34.119 27.103 33.999 27.619 33.999 28.162L34 28.161ZM7.20902 6.91198C5.14002 8.59298 4.00002 10.755 4.00002 13C4.00002 14.259 4.35002 15.481 5.03902 16.63C5.75002 17.815 6.82002 18.898 8.13202 19.763C9.08102 20.388 9.71902 21.386 9.88702 22.51C9.94302 22.885 9.97802 23.263 9.99202 23.639C10.225 23.445 10.453 23.238 10.676 23.015C11.431 22.26 12.45 21.843 13.504 21.843C13.672 21.843 13.84 21.854 14.009 21.875C14.664 21.958 15.332 22 15.996 22.001V26.001C15.148 26.001 14.316 25.947 13.504 25.843C10.067 29.28 5.96502 29.896 1.99902 29.987V29.146C4.14102 28.097 5.99902 26.185 5.99902 24.001C5.99902 23.696 5.97502 23.397 5.93102 23.104C2.31202 20.721 -0.000976562 17.08 -0.000976562 13.001C-0.000976562 5.82098 7.16202 0.000976562 15.999 0.000976562C24.701 0.000976562 31.78 5.64498 31.994 12.673C30.71 12.101 29.311 11.754 27.861 11.655C27.501 9.90298 26.442 8.25398 24.791 6.91298C23.687 6.01598 22.387 5.30698 20.928 4.80498C19.375 4.27098 17.717 4.00098 16 4.00098C14.283 4.00098 12.625 4.27198 11.072 4.80498C9.61202 5.30698 8.31202 6.01598 7.20902 6.91298V6.91198Z" fill="#B0B7D1"/>
</g>
<defs>
<clipPath id="clip0_242_303">
<rect width="36" height="32" fill="white"/>
</clipPath>
</defs>
</svg>
