<svg width="217" height="75" viewBox="0 0 217 75" fill="none" xmlns="http://www.w3.org/2000/svg">
<path fill-rule="evenodd" clip-rule="evenodd" d="M16.3227 36.7209C16.2868 43.5522 21.2959 47.6246 29.2894 45.773V27.6689C21.1948 25.2038 16.3566 30.191 16.3227 36.7209ZM29.5339 1.49072H40.5433V53.6019C29.9904 55.3272 19.8834 56.4215 12.6529 52.3785C3.34301 47.1733 2.59457 30.6321 9.9615 23.2649C13.6967 19.53 21.2162 16.9006 29.2894 18.6165V2.22485C29.2683 1.87745 29.2487 1.53161 29.5339 1.49072Z" fill="#7385CB"/>
<path fill-rule="evenodd" clip-rule="evenodd" d="M58.4029 12.9894H47.3936V1.49066H58.4029V12.9894Z" fill="#7385CB"/>
<path fill-rule="evenodd" clip-rule="evenodd" d="M190.516 46.2623C202.517 50.9263 203.845 24.78 191.739 27.1792C184.221 28.6693 184.462 43.9099 190.516 46.2623ZM191.005 18.1271C200.17 17.1472 207.085 21.1917 209.843 27.424C214.55 38.0576 209.585 50.2591 202.015 53.8466C198.091 55.706 193.983 55.8831 190.271 55.5591C178.799 54.5586 171.563 42.867 175.592 29.8703C176.222 27.8362 176.931 26.592 177.305 25.956C179.798 21.7159 184.009 18.8753 191.005 18.1271Z" fill="#7385CB"/>
<path fill-rule="evenodd" clip-rule="evenodd" d="M73.5716 42.1032C70.5266 47.2207 78.1774 48.4467 83.1128 46.9964V39.412C79.3206 39.9415 75.0042 39.6951 73.5716 42.1032ZM92.899 54.0912C83.8047 54.6144 69.9839 57.7123 65.0086 51.6449C62.0857 48.0798 62.4 41.28 65.0086 37.9441C68.3797 33.6337 75.7386 32.6936 82.3789 32.0725C82.9818 30.5881 82.5753 28.173 81.8896 27.179C75.8156 25.6319 69.7807 28.0293 65.4982 29.8701V21.3076C71.9664 18.3357 86.9487 15.2066 91.4313 22.0415C93.7854 25.6313 92.899 31.892 92.899 37.4545V54.0912Z" fill="#7385CB"/>
<path fill-rule="evenodd" clip-rule="evenodd" d="M131.554 54.5809H120.545V40.3907C120.545 35.7186 121.301 29.7944 118.832 27.9134C116.899 26.4394 112.312 27.179 109.536 27.9134V54.5809H98.5259V20.5738C109.78 17.6504 130.095 14.516 131.554 28.6472C132.274 35.6144 131.021 46.0673 131.554 54.5809Z" fill="#7385CB"/>
<path fill-rule="evenodd" clip-rule="evenodd" d="M147.946 42.8372C149.799 45.8346 154.815 46.9585 158.955 45.039C158.728 39.3132 158.648 33.4395 158.711 27.4239C149.196 24.9101 143.526 35.6872 147.946 42.8372ZM175.592 19.5952C174.612 22.5299 173.178 25.0098 171.922 27.6689C170.787 27.9231 169.804 27.2179 169.231 27.6689C168.98 39.5947 171.771 55.7619 167.029 64.3666C164.174 69.5473 158.918 72.871 150.882 73.4189C145.028 73.8182 140.484 72.8616 136.203 71.2171V60.9416C141.225 63.8739 153.915 66.2645 157.487 60.2075C158.539 58.4254 158.472 56.5835 158.955 53.8465C156.655 53.9674 154.422 55.0325 151.616 55.07C140.078 55.2231 132.939 46.0359 135.713 33.2955C136.786 28.3674 139.674 24.3994 143.542 22.0416C151.577 17.1445 163.928 17.5163 175.592 19.5952Z" fill="#7385CB"/>
<path fill-rule="evenodd" clip-rule="evenodd" d="M58.403 18.812C58.3905 26.919 58.3924 32.7445 58.3916 42.5935C57.9239 52.2724 58.0327 59.9799 54.4887 64.6112C53.7897 65.5245 52.3054 66.8567 51.0634 67.7919C50.0205 68.5771 48.0327 70.1693 46.9043 70.2385C45.7668 70.3084 42.8444 68.6594 41.5218 68.0364C39.7851 67.2185 38.1796 66.1323 36.3843 65.5901C40.572 62.995 44.5473 61.0495 46.1702 55.8039C47.5817 51.2419 47.3937 44.6312 47.3937 38.1888C47.3937 31.8273 47.422 24.4315 47.422 18.8148L58.403 18.8123V18.812Z" fill="#7385CB"/>
</svg>
