<svg width="97" height="97" viewBox="0 0 97 97" fill="none" xmlns="http://www.w3.org/2000/svg">
<path d="M13.5459 87.1484L5.77832 0H91.2217L83.4541 87.1484L48.4053 97L13.5459 87.1484Z" fill="#7385CB"/>
<path d="M54.0699 17.6191L51.3039 28.2285H63.5615L62.6142 39.2168H48.4052L45.5824 50.0156H61.6669L60.3408 63.8457L48.4052 67.0664L41.5849 65.2287L38.8757 75.6107L48.4052 78.2441H48.5947L70.5712 72.1816L75.3076 17.6191H54.0699Z" fill="#323330"/>
<path d="M36.4697 63.8457L35.2762 50.0156H40.1072L42.9301 39.2168H34.3857L33.4385 28.2285H45.8098L48.5947 17.6191H21.6924L26.4287 72.1816L33.7605 74.2088L36.4697 63.8457Z" fill="#323330"/>
<path opacity="0.3" d="M48.5947 89.4219L76.8232 81.6543L83.4541 7.00977H48.5947V89.4219Z" fill="white"/>
</svg>
