<svg width="94" height="94" viewBox="0 0 94 94" fill="none" xmlns="http://www.w3.org/2000/svg">
<path d="M62.0819 0H13.3664C12.0101 0 10.9106 1.09946 10.9106 3.23293V92.3214C10.9106 92.9005 12.0101 94 13.3664 94H80.6335C81.9898 94 83.0892 92.9005 83.0892 92.3214V21.7845C83.0892 20.6162 82.9331 20.2402 82.6578 19.9632L63.126 0.431393C62.849 0.156107 62.473 0 62.0819 0Z" fill="#E9E9E0"/>
<path d="M62.9465 0.25354V20.1429H82.8359L62.9465 0.25354Z" fill="#D9D7CA"/>
<path d="M80.6335 94.0001H13.3664C12.0101 94.0001 10.9106 92.9006 10.9106 91.5443V65.4644H83.0892V91.5443C83.0892 92.9006 81.9898 94.0001 80.6335 94.0001Z" fill="#7385CB"/>
<path d="M43.678 71.707V84.8804C43.678 85.6761 43.5319 86.3458 43.2415 86.888C42.9495 87.4302 42.56 87.8666 42.0716 88.1956C41.5814 88.5246 41.0191 88.7546 40.3846 88.8838C39.7501 89.0131 39.0938 89.0785 38.4223 89.0785C38.085 89.0785 37.6905 89.0433 37.2406 88.9745C36.7908 88.9056 36.3225 88.7999 35.8407 88.6539C35.359 88.5078 34.8957 88.3433 34.4525 88.1604C34.0077 87.9774 33.6334 87.7709 33.3279 87.541L34.4978 85.6828C34.6506 85.7885 34.8688 85.901 35.1525 86.0151C35.4362 86.1293 35.745 86.2367 36.0824 86.3357C36.4181 86.4365 36.7706 86.5221 37.1382 86.5993C37.5058 86.6765 37.85 86.7134 38.1706 86.7134C38.9796 86.7134 39.6276 86.5556 40.1093 86.2434C40.5911 85.9312 40.8462 85.3974 40.8781 84.6488V71.7053H43.678V71.707Z" fill="white"/>
<path d="M57.3803 84.3281C57.3803 84.9391 57.2544 85.5333 57.001 86.1074C56.7475 86.6815 56.3933 87.1867 55.9334 87.6215C55.4735 88.0562 54.9078 88.4054 54.2347 88.6655C53.5616 88.9257 52.7962 89.055 51.9401 89.055C51.5725 89.055 51.1948 89.0348 50.8037 88.9979C50.4126 88.961 50.0181 88.8938 49.622 88.8032C49.2242 88.7109 48.8448 88.585 48.4856 88.4238C48.1264 88.2627 47.8158 88.068 47.5557 87.838L48.0374 85.864C48.2506 85.9865 48.5225 86.1057 48.8515 86.2199C49.1805 86.334 49.5196 86.4414 49.8721 86.5405C50.2229 86.6412 50.5754 86.7201 50.9279 86.7822C51.2787 86.8426 51.6077 86.8745 51.9149 86.8745C52.8482 86.8745 53.5633 86.6563 54.0601 86.2199C54.557 85.7834 54.8054 85.1372 54.8054 84.2811C54.8054 83.7608 54.6292 83.3176 54.2783 82.95C53.9258 82.5824 53.4861 82.25 52.959 81.9513C52.4319 81.6525 51.8612 81.3554 51.2485 81.0566C50.6358 80.7578 50.0618 80.4053 49.528 80.0008C48.9925 79.5962 48.5477 79.1178 48.1969 78.5673C47.8444 78.0167 47.6698 77.3285 47.6698 76.5026C47.6698 75.754 47.8075 75.0876 48.0827 74.5068C48.358 73.926 48.729 73.4308 49.1956 73.0263C49.6623 72.6218 50.2061 72.3112 50.8255 72.0964C51.4449 71.8815 52.0996 71.7758 52.7878 71.7758C53.4911 71.7758 54.2028 71.8412 54.9212 71.9705C55.6397 72.0997 56.2204 72.3112 56.6653 72.6016C56.5729 72.7997 56.4655 73.0179 56.3447 73.2563C56.2221 73.4946 56.1063 73.7145 56.0006 73.921C55.8931 74.1274 55.8008 74.3003 55.7253 74.438C55.6481 74.5756 55.6027 74.6528 55.5876 74.6679C55.4953 74.6226 55.3929 74.5622 55.2771 74.485C55.1613 74.4078 54.9968 74.3322 54.7836 74.255C54.5687 74.1778 54.2851 74.1258 53.9342 74.0939C53.5817 74.062 53.1302 74.0704 52.5796 74.1174C52.2724 74.1493 51.9837 74.2349 51.7068 74.3809C51.4298 74.5269 51.1847 74.7049 50.9716 74.9197C50.7567 75.1346 50.5872 75.3746 50.4663 75.6432C50.3438 75.9101 50.2833 76.1686 50.2833 76.412C50.2833 77.023 50.4579 77.5165 50.8104 77.8925C51.1612 78.2685 51.5977 78.5958 52.118 78.8795C52.6384 79.1632 53.2024 79.4384 53.8167 79.7053C54.4277 79.9722 54.9985 80.2995 55.5272 80.6806C56.056 81.0616 56.4941 81.5417 56.8466 82.1141C57.2024 82.6882 57.3803 83.425 57.3803 84.3281Z" fill="white"/>
<path d="M32.7322 31.8928V25.1785C32.7322 24.2536 33.4842 23.5 34.4108 23.5C35.339 23.5 36.0894 22.748 36.0894 21.8214C36.0894 20.8948 35.339 20.1428 34.4108 20.1428C31.6344 20.1428 29.3751 22.4022 29.3751 25.1785V31.8928C29.3751 33.7443 27.8694 35.25 26.0179 35.25C25.0897 35.25 24.3394 36.002 24.3394 36.9285C24.3394 37.8551 25.0897 38.6071 26.0179 38.6071C27.8694 38.6071 29.3751 40.1128 29.3751 41.9643V48.6785C29.3751 51.4549 31.6344 53.7143 34.4108 53.7143C35.339 53.7143 36.0894 52.9622 36.0894 52.0357C36.0894 51.1091 35.339 50.3571 34.4108 50.3571C33.4842 50.3571 32.7322 49.6034 32.7322 48.6785V41.9643C32.7322 39.95 31.8224 38.1606 30.4124 36.9285C31.8224 35.6965 32.7322 33.9071 32.7322 31.8928Z" fill="#7385CB"/>
<path d="M46.1607 33.5715C47.5513 33.5715 48.6785 32.4442 48.6785 31.0536C48.6785 29.663 47.5513 28.5358 46.1607 28.5358C44.7701 28.5358 43.6428 29.663 43.6428 31.0536C43.6428 32.4442 44.7701 33.5715 46.1607 33.5715Z" fill="#7385CB"/>
<path d="M66.3036 35.25C64.4521 35.25 62.9465 33.7443 62.9465 31.8928V25.1785C62.9465 22.4022 60.6871 20.1428 57.9107 20.1428C56.9825 20.1428 56.2322 20.8948 56.2322 21.8214C56.2322 22.748 56.9825 23.5 57.9107 23.5C58.8373 23.5 59.5893 24.2536 59.5893 25.1785V31.8928C59.5893 33.9071 60.4991 35.6965 61.9091 36.9285C60.4991 38.1606 59.5893 39.95 59.5893 41.9643V48.6785C59.5893 49.6034 58.8373 50.3571 57.9107 50.3571C56.9825 50.3571 56.2322 51.1091 56.2322 52.0357C56.2322 52.9622 56.9825 53.7143 57.9107 53.7143C60.6871 53.7143 62.9465 51.4549 62.9465 48.6785V41.9643C62.9465 40.1128 64.4521 38.6071 66.3036 38.6071C67.2319 38.6071 67.9822 37.8551 67.9822 36.9285C67.9822 36.002 67.2319 35.25 66.3036 35.25Z" fill="#7385CB"/>
<path d="M46.1607 40.2858C45.2325 40.2858 44.4822 41.0378 44.4822 41.9643V47.0001C44.4822 47.9266 45.2325 48.6786 46.1607 48.6786C47.089 48.6786 47.8393 47.9266 47.8393 47.0001V41.9643C47.8393 41.0378 47.089 40.2858 46.1607 40.2858Z" fill="#7385CB"/>
</svg>
