<svg width="37" height="37" viewBox="0 0 37 37" fill="none" xmlns="http://www.w3.org/2000/svg">
<path d="M18.0486 8.99308L18.5013 9.9573L18.9538 8.99295C20.46 5.78285 23.6688 2.8125 27.2875 2.8125C32.3728 2.8125 36.5 6.94069 36.5 12.0262C36.5 17.0858 33.7854 20.4177 30.0679 23.8758C29.2847 24.6045 28.4561 25.3388 27.6025 26.0954C24.5805 28.7737 21.2443 31.7305 18.4914 35.6988C15.6704 31.8136 12.3992 28.9484 9.45259 26.3675C8.52077 25.5513 7.62142 24.7636 6.77903 23.981C3.1225 20.5841 0.5 17.2673 0.5 12.0262C0.5 6.94069 4.62719 2.8125 9.7125 2.8125C13.3324 2.8125 16.5412 5.78289 18.0486 8.99308Z" stroke="#0E1418"/>
</svg>
