<svg width="34" height="31" viewBox="0 0 34 31" fill="none" xmlns="http://www.w3.org/2000/svg">
<mask id="mask0_207_80" style="mask-type:alpha" maskUnits="userSpaceOnUse" x="0" y="0" width="34" height="32">
<path d="M34 0H0V32H34V0Z" fill="#C4C4C4"/>
</mask>
<g mask="url(#mask0_207_80)">
<path d="M24.2068 32.6537L10.8563 31.7783L-5.71484 17.2899L24.2068 26.3506C25.114 26.3506 25.8701 26.0551 26.4749 25.4643C27.1134 24.8405 27.4325 24.0853 27.4325 23.199C27.4325 22.3128 27.1134 21.5741 26.4749 20.9831C25.8701 20.3593 25.114 20.0475 24.2068 20.0475H11.3043C8.61619 20.0475 6.33131 19.1283 4.44964 17.2899C2.56798 15.4514 1.62714 13.2191 1.62714 10.5928C1.62714 7.96648 2.56798 5.73412 4.44964 3.89571C6.33131 2.0573 8.61619 1.13809 11.3043 1.13809L26.4749 2.88896L39.24 16.502L11.3043 7.44122C10.3971 7.44122 9.62423 7.75309 8.98572 8.37685C8.38107 8.96777 8.07857 9.70641 8.07857 10.5928C8.07857 11.4792 8.38107 12.2342 8.98572 12.858C9.62423 13.4489 10.3971 13.7443 11.3043 13.7443H24.2068C26.8949 13.7443 29.1798 14.6636 31.0614 16.502C32.9429 18.3404 33.8838 20.5727 33.8838 23.199C33.8838 25.8253 32.9429 28.0577 31.0614 29.8961C29.1798 31.7345 26.8949 32.6537 24.2068 32.6537Z" fill="#FBFFFF"/>
<path d="M10.8861 1.48828L26.2759 3.23915L31.6624 8.92948V13.6568L11.912 7.09106L11.0571 6.91598H10.3731L9.60357 7.17861L8.91958 7.70387L8.40658 8.22913L8.06458 8.75439L7.72259 9.62982L7.63709 10.1551V10.6803L7.72259 11.2931L7.89359 11.8184H2.07964L1.99414 11.2931V10.6803V10.1551V9.71737V9.10456L2.16514 8.40421L2.33614 7.79141L2.59264 7.09106L2.93463 6.39071L3.44763 5.60282L4.21712 4.5523L5.07211 3.76441L6.0126 3.06406L6.95309 2.5388L7.89359 2.10109L8.74858 1.83846L9.86007 1.57582L10.8861 1.48828Z" fill="#EBF3F7"/>
<path d="M23.9674 26.6132L24.3094 26.7008H24.6514L24.9934 26.6132L25.3354 26.5257L25.6773 26.4381L26.0193 26.2631L26.2758 26.088L26.5323 25.8253L26.7888 25.5627L26.9598 25.3001L27.2163 24.9499L27.3873 24.5997L27.5583 24.2496L27.6438 23.8994V23.4617V23.1115V22.7613L27.5583 22.3236L27.4728 22.1485L27.3873 21.8859L27.2163 21.4482L27.0453 21.1855L26.8743 20.9229L26.5323 20.5727L26.1903 20.2226L25.7628 20.0475L25.3354 19.8724L24.9079 19.7848H23.9674H20.8039L26.2758 14.1821L26.7033 14.2696L27.2163 14.4447L27.6438 14.6198L27.9858 14.7073L28.3278 14.8824L28.7553 15.0575L29.1828 15.3201L29.7813 15.7578L30.5508 16.3706L31.3203 17.1585L31.6623 17.6838V22.2361V28.7143L30.9783 29.5022L30.2943 30.2025L29.3538 30.8153L28.6698 31.1655H10.715L0.455078 22.2361V19.5222L23.9674 26.6132Z" fill="#EBF3F6"/>
<path d="M10.3719 14.9471H19.1455H23.1127L19.1455 18.7343C19.1455 18.7343 12.7673 19.6973 9.53283 18.7343C6.29823 17.7713 9.3933 18.6881 9.30387 18.6585C9.21443 18.6289 9.07507 18.5829 9.07507 18.5829L8.76984 18.5071L8.54104 18.4314L8.31208 18.3556L8.08328 18.2798L7.85431 18.2042L7.62552 18.1283C7.62552 18.1283 7.26762 18.034 7.29532 18.034C7.32302 18.034 7.25411 18.034 7.12432 17.9011C6.99453 17.7682 6.93879 17.7496 6.93879 17.7496L6.70999 17.5982L6.48102 17.4466L6.25223 17.2952C6.25223 17.2952 6.25223 17.226 5.947 17.0679C5.64194 16.9098 5.64193 16.8407 5.64193 16.8407L5.3367 16.5377C5.3367 16.5377 5.10432 16.3069 4.95521 16.159C4.74676 15.9519 4.42118 15.6288 4.42118 15.6288L3.96341 14.9471L3.42939 13.9624L3.35312 13.7351L3.27686 13.5836H8.23581L8.54104 13.9624L8.8461 14.2653L9.30387 14.5683L9.83789 14.7956L10.3719 14.9471Z" fill="#313E47" fill-opacity="0.54"/>
</g>
</svg>
