<svg width="86" height="87" viewBox="0 0 86 87" fill="none" xmlns="http://www.w3.org/2000/svg">
<g clip-path="url(#clip0_103_86)">
<path d="M18.1 42.4643C17.6334 43.44 16.4597 43.8501 15.484 43.3834C14.5083 42.9168 14.0982 41.7502 14.5648 40.7674C15.5971 38.6039 16.8698 36.5747 18.3404 34.7082C19.8252 32.8275 21.5079 31.1235 23.3532 29.6246C24.1946 28.9388 25.4319 29.066 26.1107 29.9074C26.7965 30.7488 26.6692 31.9861 25.8279 32.6648C24.1946 33.9941 22.7098 35.493 21.416 37.1333C20.1221 38.7807 19.0121 40.5624 18.1 42.4643ZM66.9912 65.9448L69.2679 72.6475L70.4132 68.6669L69.8547 68.0518C69.6002 67.6841 69.5436 67.3589 69.685 67.0831C69.989 66.4821 70.6183 66.5953 71.2051 66.5953C71.8202 66.5953 72.5838 66.4821 72.7747 67.2528C72.8384 67.5073 72.7606 67.7831 72.5768 68.0588L72.0182 68.6739L73.1636 72.6545L75.2281 65.9519C76.72 67.2952 81.1248 67.5639 82.7651 68.476C83.2812 68.7658 83.7549 69.1335 84.1296 69.6284C84.7023 70.385 85.0488 71.3677 85.1478 72.6192L85.4872 76.2604C85.4023 77.1442 84.9003 77.6532 83.9105 77.731H71.2122H58.3018C57.312 77.6532 56.81 77.1442 56.7251 76.2604L57.0645 72.6192C57.1635 71.3677 57.5099 70.385 58.0826 69.6284C58.4573 69.1335 58.9311 68.7658 59.4472 68.476C61.0946 67.5568 65.4994 67.2882 66.9912 65.9448ZM10.259 65.9448L12.5357 72.6475L13.6811 68.6669L13.1225 68.0518C12.868 67.6841 12.8114 67.3589 12.9528 67.0831C13.2568 66.4821 13.8861 66.5953 14.4729 66.5953C15.088 66.5953 15.8516 66.4821 16.0425 67.2528C16.1062 67.5073 16.0284 67.7831 15.8446 68.0588L15.286 68.6739L16.4314 72.6545L18.4959 65.9519C19.9878 67.2952 24.3926 67.5639 26.0329 68.476C26.549 68.7658 27.0227 69.1335 27.3975 69.6284C27.9702 70.385 28.3166 71.3677 28.4156 72.6192L28.755 76.2604C28.6701 77.1442 28.1681 77.6532 27.1783 77.731H14.4871H1.57668C0.586836 77.6532 0.0848437 77.1442 0 76.2604L0.339375 72.6192C0.438359 71.3677 0.784805 70.385 1.3575 69.6284C1.73223 69.1335 2.20594 68.7658 2.72207 68.476C4.36238 67.5568 8.77426 67.2882 10.259 65.9448ZM9.17727 56.3645C9.35402 56.414 9.53078 56.414 9.71461 56.3787L9.38937 53.8051C9.55906 53.1687 9.81359 52.6738 10.1459 52.3132C10.4994 51.9314 10.9378 51.6981 11.468 51.5991C12.168 51.5496 12.3801 52.0587 13.073 52.5041C15.1941 53.8616 16.99 54.3212 19.613 54.3495L19.2878 55.9827C19.2383 56.0534 19.2171 56.1383 19.2242 56.2302C19.2242 56.2443 19.2313 56.2655 19.2313 56.2797L19.1888 56.5059C19.2595 56.513 19.3302 56.513 19.3939 56.513C19.4575 56.5554 19.5423 56.5766 19.6272 56.5696C20.0797 56.5271 20.3625 56.5696 20.4332 56.7251C20.5393 56.9301 20.4473 57.3544 20.1504 58.0331L18.7151 60.3946C18.1848 61.2713 17.6404 62.1551 16.9546 62.7985C16.2971 63.4136 15.484 63.8237 14.3739 63.8237C13.3488 63.8237 12.5781 63.4278 11.9347 62.8409C11.2701 62.2329 10.7327 61.4057 10.2237 60.5926L8.95102 58.5634L8.94394 58.5563C8.55508 57.9766 8.35004 57.4675 8.3359 57.0857C8.32883 56.9584 8.35004 56.8453 8.39246 56.7463C8.42781 56.6615 8.49145 56.5908 8.57629 56.5413C8.72477 56.4352 8.92273 56.3787 9.17727 56.3645ZM20.4968 55.8837L20.5746 52.589C20.4756 51.2456 20.0373 50.2346 19.3302 49.4639C17.5909 47.5832 14.3527 47.1024 11.8993 47.9862C11.4893 48.1347 11.0933 48.3256 10.7398 48.5518C9.72875 49.1952 8.91566 50.1285 8.59043 51.2951C8.51266 51.5709 8.46316 51.8466 8.43488 52.1223C8.37832 53.2748 8.41367 54.6606 8.49145 55.7565C8.37832 55.7989 8.27227 55.8555 8.18035 55.9191C7.98238 56.0534 7.83391 56.2231 7.74199 56.4352C7.65008 56.6332 7.60766 56.8524 7.61473 57.0998C7.62887 57.623 7.86926 58.2594 8.34297 58.9593L9.61563 60.9814C10.153 61.8369 10.7186 62.7066 11.4539 63.3783C12.2175 64.0782 13.1508 64.5519 14.3881 64.5519C15.7173 64.5519 16.6859 64.0641 17.4707 63.3288C18.2273 62.6217 18.8 61.6955 19.3585 60.7693L20.8079 58.3796C20.815 58.3654 20.8221 58.3513 20.8291 58.3371C21.2251 57.4321 21.3099 56.81 21.1049 56.3928C20.9776 56.1383 20.7796 55.9757 20.4968 55.8837ZM38.4413 8.80253C38.618 8.85202 38.7948 8.85203 38.9786 8.81667L38.6534 6.24308C38.816 5.60675 39.0705 5.11183 39.4099 4.75124C39.7634 4.36945 40.2018 4.13613 40.7321 4.03714C41.432 3.98765 41.6441 4.49671 42.337 4.94214C44.4581 6.29964 46.254 6.75921 48.8771 6.78749L48.5518 8.42074C48.5023 8.49144 48.4811 8.57628 48.4882 8.6682C48.4882 8.68234 48.4953 8.70355 48.4953 8.71769L48.4529 8.94394C48.5236 8.95101 48.5943 8.95101 48.6579 8.95101C48.7215 8.99343 48.8064 9.01464 48.8912 9.00757C49.3437 8.96515 49.6265 9.00757 49.6972 9.15605C49.8033 9.36109 49.7114 9.78531 49.4144 10.4641L47.9791 12.8255C47.4489 13.7023 46.9045 14.586 46.2186 15.2294C45.5611 15.8446 44.748 16.2546 43.638 16.2546C42.6128 16.2546 41.8421 15.8587 41.1987 15.2719C40.5341 14.6638 39.9968 13.8366 39.4877 13.0235L38.215 10.9943L38.208 10.9873C37.8191 10.4075 37.6141 9.89843 37.5999 9.51663C37.5929 9.38937 37.6141 9.27624 37.6565 9.17726C37.6918 9.09241 37.7555 9.02171 37.8403 8.97222C37.9888 8.87323 38.1868 8.81667 38.4413 8.80253ZM39.523 18.3828L41.7997 25.0855L42.9451 21.1049L42.3865 20.4898C42.132 20.1221 42.0754 19.7969 42.2168 19.5211C42.5209 18.9202 43.1501 19.0333 43.737 19.0333C44.3521 19.0333 45.1157 18.9202 45.3066 19.6908C45.3702 19.9453 45.2924 20.2211 45.1086 20.4968L44.55 21.1119L45.6954 25.0925L47.767 18.3828C49.2589 19.7262 53.6637 19.9948 55.304 20.9069C55.8201 21.1968 56.2938 21.5644 56.6686 22.0594C57.2413 22.8159 57.5877 23.7987 57.6867 25.0501L58.0261 28.6913C57.9412 29.5751 57.4392 30.0842 56.4494 30.1619H43.7511H30.8407C29.8509 30.0842 29.3489 29.5751 29.264 28.6913L29.6034 25.0501C29.7024 23.7987 30.0488 22.8159 30.6215 22.0594C30.9963 21.5644 31.47 21.1968 31.9861 20.9069C33.6264 19.9948 38.0383 19.7262 39.523 18.3828ZM49.7609 8.32882L49.8386 5.03406C49.7396 3.6907 49.3013 2.67964 48.5943 1.90898C46.855 0.0282747 43.6168 -0.452507 41.1634 0.431282C40.7533 0.579759 40.3644 0.770657 40.0038 0.996907C38.9998 1.63324 38.1797 2.57359 37.8545 3.73312C37.7767 4.00886 37.7272 4.2846 37.6989 4.56034C37.6423 5.71281 37.6777 7.09859 37.7555 8.19449C37.6423 8.23691 37.5363 8.29347 37.4444 8.3571C37.2464 8.49144 37.0979 8.66113 37.006 8.87324C36.9141 9.0712 36.8717 9.29038 36.8787 9.53784C36.8929 10.061 37.1333 10.6974 37.607 11.3973L38.8797 13.4194C39.417 14.275 39.9826 15.1446 40.7179 15.8163C41.4815 16.5162 42.4148 16.99 43.6521 16.99C44.9813 16.99 45.95 16.5021 46.7348 15.7668C47.4913 15.0527 48.064 14.1335 48.6225 13.2073L50.072 10.8176C50.079 10.8034 50.0861 10.7893 50.0932 10.7751C50.4891 9.87015 50.5739 9.24796 50.3689 8.83081C50.2416 8.57628 50.0437 8.41366 49.7609 8.32882ZM65.9024 56.3645C65.6479 56.3787 65.457 56.4352 65.3155 56.5271C65.2307 56.5837 65.1741 56.6544 65.1317 56.7322C65.0893 56.8241 65.0681 56.9372 65.0752 57.0716C65.0893 57.4604 65.2873 57.9624 65.6832 58.5422L65.6903 58.5492L66.9629 60.5784C67.472 61.3915 68.0093 62.2187 68.6739 62.8268C69.3103 63.4136 70.088 63.8025 71.1132 63.8096C72.2232 63.8096 73.0363 63.3995 73.6939 62.7844C74.3797 62.141 74.9241 61.2643 75.4544 60.3805L76.8896 58.019C77.1866 57.3402 77.2785 56.916 77.1725 56.711C77.0947 56.5554 76.8189 56.5201 76.3664 56.5554C76.2816 56.5625 76.2038 56.5413 76.1331 56.4989C76.0624 56.4989 75.9917 56.4989 75.9281 56.4918L75.9705 56.2655C75.9634 56.2514 75.9634 56.2373 75.9634 56.216C75.9564 56.1241 75.9776 56.0393 76.0271 55.9686L76.3523 54.3353C73.7292 54.3 71.9334 53.8475 69.8123 52.49C69.1123 52.0446 68.9073 51.5355 68.2073 51.585C67.677 51.684 67.2387 51.9244 66.8852 52.2991C66.5458 52.6597 66.2913 53.1546 66.1286 53.7909L66.4539 56.3645C66.2559 56.414 66.0791 56.4069 65.9024 56.3645ZM77.222 55.8837C77.5048 55.9686 77.7027 56.1312 77.83 56.3857C78.035 56.8029 77.9502 57.4321 77.5543 58.3301C77.5472 58.3442 77.5401 58.3583 77.5331 58.3725L76.0836 60.7623C75.5251 61.6814 74.9524 62.6076 74.1959 63.3217C73.4111 64.057 72.4424 64.5519 71.1132 64.5449C69.8759 64.5449 68.9426 64.0712 68.179 63.3712C67.4437 62.6995 66.8781 61.8228 66.3407 60.9744L65.0681 58.9523C64.6014 58.2523 64.3611 57.616 64.3398 57.0928C64.3328 56.8453 64.3752 56.6191 64.4671 56.4282C64.5661 56.2231 64.7075 56.0464 64.9055 55.912C64.9974 55.8484 65.1034 55.7989 65.2166 55.7494C65.1317 54.6535 65.1034 53.2748 65.16 52.1153C65.1883 51.8395 65.2378 51.5638 65.3155 51.288C65.6408 50.1285 66.4609 49.1882 67.4649 48.5448C67.8184 48.3185 68.2144 48.1276 68.6245 47.9791C71.0708 47.0953 74.3161 47.5761 76.0554 49.4568C76.7624 50.2204 77.2078 51.2385 77.2997 52.5819L77.222 55.8837ZM61.8652 33.0042C61.038 32.3113 60.932 31.074 61.6248 30.2468C62.3177 29.4196 63.555 29.3135 64.3823 30.0064C64.7782 30.3387 65.0893 30.6074 65.3226 30.8195C65.6054 31.074 65.9024 31.3639 66.2276 31.675C67.4154 32.8487 68.5113 34.093 69.487 35.4081C70.4627 36.7232 71.3536 38.1231 72.1384 39.6008C72.6404 40.5624 72.2727 41.7502 71.3182 42.2522C70.3567 42.7542 69.1689 42.3865 68.6669 41.432C67.9952 40.1594 67.2175 38.9291 66.3407 37.7625C65.457 36.5818 64.5025 35.4788 63.4773 34.4748C63.2439 34.2415 62.9753 33.9941 62.6854 33.7254C62.3389 33.4143 62.0632 33.1739 61.8652 33.0042ZM52.6809 81.4783C53.7061 81.1318 54.8161 81.6904 55.1626 82.7156C55.509 83.7408 54.9505 84.8508 53.9253 85.1973C52.292 85.7487 50.6022 86.173 48.8629 86.4487C47.1448 86.7315 45.3985 86.8729 43.645 86.8729C41.8563 86.8729 40.0816 86.7244 38.3352 86.4346C36.5464 86.1376 34.8213 85.6992 33.1739 85.1336C32.1487 84.7801 31.5972 83.663 31.9507 82.6378C32.3043 81.6126 33.4214 81.0611 34.4466 81.4146C35.9172 81.9166 37.4302 82.3055 38.9574 82.56C40.4634 82.8075 42.0259 82.9418 43.638 82.9418C45.2217 82.9418 46.756 82.8146 48.2266 82.5742C49.7609 82.3338 51.2456 81.9591 52.6809 81.4783Z" fill="#7385CB"/>
</g>
<defs>
<clipPath id="clip0_103_86">
<rect width="85.4872" height="86.88" fill="white"/>
</clipPath>
</defs>
</svg>
