<svg width="94" height="75" viewBox="0 0 94 75" fill="none" xmlns="http://www.w3.org/2000/svg">
<path fill-rule="evenodd" clip-rule="evenodd" d="M6.36458 0H87.6354C91.139 0 94 2.93686 94 6.53335V68.4667C94 72.0553 91.139 75 87.6354 75H6.36458C2.861 75 0 72.0631 0 68.4667V6.53335C0 2.93686 2.861 0 6.36458 0ZM9.63867 21.1627H83.6652V53.4211H9.63867V21.1627ZM24.6398 30.3659H29.2144V40.1345C29.2144 41.1004 29.0767 42.0192 28.8013 42.8751C28.5259 43.7389 28.0975 44.4927 27.5161 45.1366C26.9347 45.7805 26.3228 46.236 25.6802 46.4951C24.7928 46.8563 23.7218 47.0448 22.4749 47.0448C21.7559 47.0448 20.9679 46.9898 20.1112 46.8799C19.262 46.77 18.543 46.5501 17.9692 46.2124C17.3955 45.8826 16.8753 45.4115 16.401 44.799C15.9268 44.1865 15.5978 43.5583 15.4219 42.9065C15.1388 41.8621 14.9935 40.9434 14.9935 40.1345V30.3659H19.568V40.3701C19.568 41.2653 19.7899 41.9642 20.2412 42.4589C20.6925 42.9615 21.3122 43.2127 22.1077 43.2127C22.888 43.2127 23.5077 42.9615 23.959 42.4668C24.4027 41.972 24.6322 41.2732 24.6322 40.3623V30.3659H24.6398ZM32.4272 30.3659H37.0247V46.77H32.4272V30.3659ZM42.5249 30.0911H44.6056L40.8649 47.0448H38.7842L42.5249 30.0911ZM55.7054 30.3659H60.28V40.1345C60.28 41.1004 60.1423 42.0192 59.8669 42.8751C59.5915 43.7389 59.1631 44.4927 58.5817 45.1366C58.0003 45.7805 57.3884 46.236 56.7458 46.4951C55.8584 46.8563 54.7874 47.0448 53.5405 47.0448C52.8215 47.0448 52.0335 46.9898 51.1768 46.8799C50.3276 46.77 49.6086 46.5501 49.0348 46.2124C48.4611 45.8826 47.9409 45.4115 47.4666 44.799C46.9924 44.1865 46.6634 43.5583 46.4875 42.9065C46.2044 41.8621 46.0667 40.9434 46.0667 40.1345V30.3659H50.6413V40.3701C50.6413 41.2653 50.8631 41.9642 51.3145 42.4589C51.7658 42.9615 52.3854 43.2127 53.181 43.2127C53.9613 43.2127 54.5809 42.9615 55.0322 42.4668C55.4759 41.972 55.7054 41.2732 55.7054 40.3623V30.3659ZM62.2918 30.3659H67.3483L69.9722 35.4151L72.5195 30.3659H77.5072L72.902 38.3127L77.9432 46.77H72.7873L69.8804 41.5009L66.9505 46.77H61.8329L66.9429 38.2185L62.2918 30.3659ZM51.1538 65.7104C49.7922 65.7104 48.6906 64.4775 48.6906 62.962C48.6906 61.4386 49.7922 60.2136 51.1538 60.2136H81.485C82.8467 60.2136 83.9482 61.4464 83.9482 62.962C83.9482 64.4854 82.8467 65.7104 81.485 65.7104H51.1538ZM11.444 65.7104C10.0977 65.7104 9.00374 64.4775 9.00374 62.962C9.00374 61.4386 10.0977 60.2136 11.444 60.2136H39.5645C40.9108 60.2136 42.0047 61.4464 42.0047 62.962C42.0047 64.4854 40.9108 65.7104 39.5645 65.7104H11.444ZM90.244 15.7837H4.04671V69.1027C4.04671 69.6053 4.23796 70.045 4.55925 70.3827C4.88818 70.7125 5.31657 70.9088 5.80615 70.9088H88.4539C88.9435 70.9088 89.3719 70.7125 89.7009 70.3827C90.0298 70.045 90.2134 69.6053 90.2134 69.1027V15.7837H90.244ZM81.5768 4.83719C83.3133 4.83719 84.7209 6.28206 84.7209 8.0646C84.7209 9.84714 83.3133 11.292 81.5768 11.292C79.8403 11.292 78.4328 9.84714 78.4328 8.0646C78.4404 6.28206 79.848 4.83719 81.5768 4.83719ZM60.28 4.83719C62.0164 4.83719 63.424 6.28206 63.424 8.0646C63.424 9.84714 62.0164 11.292 60.28 11.292C58.5435 11.292 57.1359 9.84714 57.1359 8.0646C57.1359 6.28206 58.5435 4.83719 60.28 4.83719ZM70.9284 4.83719C72.6649 4.83719 74.0724 6.28206 74.0724 8.0646C74.0724 9.84714 72.6649 11.292 70.9284 11.292C69.1919 11.292 67.7843 9.84714 67.7843 8.0646C67.7843 6.28206 69.1919 4.83719 70.9284 4.83719Z" fill="#7385CB"/>
</svg>
